<mxfile host="app.diagrams.net" modified="2024-02-24T15:07:59.867Z" agent="Mozilla/5.0 (Windows NT 10.0; Win64; x64) AppleWebKit/537.36 (KHTML, like Gecko) Chrome/121.0.0.0 Safari/537.36" etag="2JlvK5fKZA1N9Krk42aU" version="23.1.6" type="device">
  <diagram name="Page-1" id="fIXqwLw3X6Zs6DmYluUF">
    <mxGraphModel dx="1870" dy="1076" grid="1" gridSize="10" guides="1" tooltips="1" connect="1" arrows="1" fold="1" page="1" pageScale="1" pageWidth="850" pageHeight="1100" math="0" shadow="0">
      <root>
        <mxCell id="0" />
        <mxCell id="1" parent="0" />
        <mxCell id="VRtCMUos0eJo_aIZs6vY-3" value="" style="group" parent="1" vertex="1" connectable="0">
          <mxGeometry x="-650" y="270" width="750" height="120" as="geometry" />
        </mxCell>
        <mxCell id="VRtCMUos0eJo_aIZs6vY-1" value="&lt;blockquote style=&quot;margin: 0 0 0 40px; border: none; padding: 0px;&quot;&gt;&lt;blockquote style=&quot;margin: 0 0 0 40px; border: none; padding: 0px;&quot;&gt;&lt;blockquote style=&quot;margin: 0 0 0 40px; border: none; padding: 0px;&quot;&gt;Rendelés&lt;/blockquote&gt;&lt;/blockquote&gt;&lt;/blockquote&gt;" style="rounded=0;whiteSpace=wrap;html=1;align=left;" parent="VRtCMUos0eJo_aIZs6vY-3" vertex="1">
          <mxGeometry y="20" width="300" height="40" as="geometry" />
        </mxCell>
        <mxCell id="VRtCMUos0eJo_aIZs6vY-2" value="rkod" style="rounded=0;whiteSpace=wrap;html=1;" parent="VRtCMUos0eJo_aIZs6vY-3" vertex="1">
          <mxGeometry y="60" width="60" height="60" as="geometry" />
        </mxCell>
        <mxCell id="VRtCMUos0eJo_aIZs6vY-4" value="tkod" style="rounded=0;whiteSpace=wrap;html=1;" parent="VRtCMUos0eJo_aIZs6vY-3" vertex="1">
          <mxGeometry x="60" y="60" width="50" height="60" as="geometry" />
        </mxCell>
        <mxCell id="m1jzY_FzFD2qXY_B5aoY-95" style="edgeStyle=orthogonalEdgeStyle;rounded=0;orthogonalLoop=1;jettySize=auto;html=1;exitX=0.5;exitY=1;exitDx=0;exitDy=0;entryX=0.5;entryY=1;entryDx=0;entryDy=0;" edge="1" parent="VRtCMUos0eJo_aIZs6vY-3" source="VRtCMUos0eJo_aIZs6vY-5" target="m1jzY_FzFD2qXY_B5aoY-8">
          <mxGeometry relative="1" as="geometry">
            <Array as="points">
              <mxPoint x="135" y="150" />
              <mxPoint x="370" y="150" />
            </Array>
          </mxGeometry>
        </mxCell>
        <mxCell id="VRtCMUos0eJo_aIZs6vY-5" value="ukod" style="rounded=0;whiteSpace=wrap;html=1;" parent="VRtCMUos0eJo_aIZs6vY-3" vertex="1">
          <mxGeometry x="110" y="60" width="50" height="60" as="geometry" />
        </mxCell>
        <mxCell id="VRtCMUos0eJo_aIZs6vY-6" value="darabszam" style="rounded=0;whiteSpace=wrap;html=1;" parent="VRtCMUos0eJo_aIZs6vY-3" vertex="1">
          <mxGeometry x="160" y="60" width="70" height="60" as="geometry" />
        </mxCell>
        <mxCell id="VRtCMUos0eJo_aIZs6vY-64" value="datum" style="rounded=0;whiteSpace=wrap;html=1;" parent="VRtCMUos0eJo_aIZs6vY-3" vertex="1">
          <mxGeometry x="230" y="60" width="70" height="60" as="geometry" />
        </mxCell>
        <mxCell id="VRtCMUos0eJo_aIZs6vY-77" value="" style="endArrow=none;html=1;rounded=0;" parent="VRtCMUos0eJo_aIZs6vY-3" edge="1">
          <mxGeometry width="50" height="50" relative="1" as="geometry">
            <mxPoint x="17.5" y="100" as="sourcePoint" />
            <mxPoint x="42.5" y="100" as="targetPoint" />
          </mxGeometry>
        </mxCell>
        <mxCell id="m1jzY_FzFD2qXY_B5aoY-4" value="" style="endArrow=none;dashed=1;html=1;dashPattern=1 3;strokeWidth=2;rounded=0;" edge="1" parent="VRtCMUos0eJo_aIZs6vY-3">
          <mxGeometry width="50" height="50" relative="1" as="geometry">
            <mxPoint x="75" y="100" as="sourcePoint" />
            <mxPoint x="100" y="100" as="targetPoint" />
          </mxGeometry>
        </mxCell>
        <mxCell id="m1jzY_FzFD2qXY_B5aoY-5" value="" style="endArrow=none;dashed=1;html=1;dashPattern=1 3;strokeWidth=2;rounded=0;" edge="1" parent="VRtCMUos0eJo_aIZs6vY-3">
          <mxGeometry width="50" height="50" relative="1" as="geometry">
            <mxPoint x="120" y="100" as="sourcePoint" />
            <mxPoint x="150" y="100" as="targetPoint" />
          </mxGeometry>
        </mxCell>
        <mxCell id="m1jzY_FzFD2qXY_B5aoY-6" value="" style="group" vertex="1" connectable="0" parent="VRtCMUos0eJo_aIZs6vY-3">
          <mxGeometry x="340" width="410" height="120" as="geometry" />
        </mxCell>
        <mxCell id="m1jzY_FzFD2qXY_B5aoY-7" value="&lt;blockquote style=&quot;margin: 0 0 0 40px; border: none; padding: 0px;&quot;&gt;&lt;blockquote style=&quot;margin: 0 0 0 40px; border: none; padding: 0px;&quot;&gt;&lt;blockquote style=&quot;margin: 0 0 0 40px; border: none; padding: 0px;&quot;&gt;Vevő&lt;/blockquote&gt;&lt;/blockquote&gt;&lt;/blockquote&gt;" style="rounded=0;whiteSpace=wrap;html=1;align=left;" vertex="1" parent="m1jzY_FzFD2qXY_B5aoY-6">
          <mxGeometry y="20" width="300" height="40" as="geometry" />
        </mxCell>
        <mxCell id="m1jzY_FzFD2qXY_B5aoY-8" value="ukod" style="rounded=0;whiteSpace=wrap;html=1;" vertex="1" parent="m1jzY_FzFD2qXY_B5aoY-6">
          <mxGeometry y="60" width="60" height="60" as="geometry" />
        </mxCell>
        <mxCell id="m1jzY_FzFD2qXY_B5aoY-9" value="nev" style="rounded=0;whiteSpace=wrap;html=1;" vertex="1" parent="m1jzY_FzFD2qXY_B5aoY-6">
          <mxGeometry x="60" y="60" width="50" height="60" as="geometry" />
        </mxCell>
        <mxCell id="m1jzY_FzFD2qXY_B5aoY-10" value="irsz" style="rounded=0;whiteSpace=wrap;html=1;" vertex="1" parent="m1jzY_FzFD2qXY_B5aoY-6">
          <mxGeometry x="110" y="60" width="50" height="60" as="geometry" />
        </mxCell>
        <mxCell id="m1jzY_FzFD2qXY_B5aoY-11" value="varos" style="rounded=0;whiteSpace=wrap;html=1;" vertex="1" parent="m1jzY_FzFD2qXY_B5aoY-6">
          <mxGeometry x="160" y="60" width="70" height="60" as="geometry" />
        </mxCell>
        <mxCell id="m1jzY_FzFD2qXY_B5aoY-12" value="utca" style="rounded=0;whiteSpace=wrap;html=1;" vertex="1" parent="m1jzY_FzFD2qXY_B5aoY-6">
          <mxGeometry x="230" y="60" width="70" height="60" as="geometry" />
        </mxCell>
        <mxCell id="m1jzY_FzFD2qXY_B5aoY-13" value="" style="endArrow=none;html=1;rounded=0;" edge="1" parent="m1jzY_FzFD2qXY_B5aoY-6">
          <mxGeometry width="50" height="50" relative="1" as="geometry">
            <mxPoint x="17.5" y="100" as="sourcePoint" />
            <mxPoint x="42.5" y="100" as="targetPoint" />
          </mxGeometry>
        </mxCell>
        <mxCell id="m1jzY_FzFD2qXY_B5aoY-35" value="tkod" style="rounded=0;whiteSpace=wrap;html=1;" vertex="1" parent="1">
          <mxGeometry x="-550" y="474" width="60" height="60" as="geometry" />
        </mxCell>
        <mxCell id="m1jzY_FzFD2qXY_B5aoY-36" value="nev" style="rounded=0;whiteSpace=wrap;html=1;" vertex="1" parent="1">
          <mxGeometry x="-490" y="474" width="50" height="60" as="geometry" />
        </mxCell>
        <mxCell id="m1jzY_FzFD2qXY_B5aoY-37" value="ear" style="rounded=0;whiteSpace=wrap;html=1;" vertex="1" parent="1">
          <mxGeometry x="-440" y="474" width="50" height="60" as="geometry" />
        </mxCell>
        <mxCell id="m1jzY_FzFD2qXY_B5aoY-93" style="edgeStyle=orthogonalEdgeStyle;rounded=0;orthogonalLoop=1;jettySize=auto;html=1;exitX=0.5;exitY=1;exitDx=0;exitDy=0;entryX=0.5;entryY=1;entryDx=0;entryDy=0;" edge="1" parent="1" source="m1jzY_FzFD2qXY_B5aoY-39" target="m1jzY_FzFD2qXY_B5aoY-63">
          <mxGeometry relative="1" as="geometry" />
        </mxCell>
        <mxCell id="m1jzY_FzFD2qXY_B5aoY-39" value="adoszam" style="rounded=0;whiteSpace=wrap;html=1;" vertex="1" parent="1">
          <mxGeometry x="-390" y="474" width="70" height="60" as="geometry" />
        </mxCell>
        <mxCell id="m1jzY_FzFD2qXY_B5aoY-40" value="" style="endArrow=none;html=1;rounded=0;" edge="1" parent="1">
          <mxGeometry width="50" height="50" relative="1" as="geometry">
            <mxPoint x="-532.5" y="514" as="sourcePoint" />
            <mxPoint x="-507.5" y="514" as="targetPoint" />
          </mxGeometry>
        </mxCell>
        <mxCell id="m1jzY_FzFD2qXY_B5aoY-41" value="" style="endArrow=none;dashed=1;html=1;dashPattern=1 3;strokeWidth=2;rounded=0;" edge="1" parent="1">
          <mxGeometry width="50" height="50" relative="1" as="geometry">
            <mxPoint x="-367.5" y="514" as="sourcePoint" />
            <mxPoint x="-342.5" y="514" as="targetPoint" />
          </mxGeometry>
        </mxCell>
        <mxCell id="m1jzY_FzFD2qXY_B5aoY-61" value="&lt;span style=&quot;white-space: pre;&quot;&gt;&#x9;&lt;/span&gt;&lt;span style=&quot;white-space: pre;&quot;&gt;&#x9;&lt;/span&gt;&lt;span style=&quot;white-space: pre;&quot;&gt;&#x9;&lt;/span&gt;&lt;span style=&quot;white-space: pre;&quot;&gt;&#x9;&lt;/span&gt;Termék" style="rounded=0;whiteSpace=wrap;html=1;align=left;" vertex="1" parent="1">
          <mxGeometry x="-550" y="444" width="230" height="30" as="geometry" />
        </mxCell>
        <mxCell id="m1jzY_FzFD2qXY_B5aoY-62" value="&lt;blockquote style=&quot;margin: 0 0 0 40px; border: none; padding: 0px;&quot;&gt;&lt;blockquote style=&quot;margin: 0 0 0 40px; border: none; padding: 0px;&quot;&gt;&lt;blockquote style=&quot;margin: 0 0 0 40px; border: none; padding: 0px;&quot;&gt;&lt;span style=&quot;white-space: pre;&quot;&gt;&#x9;&lt;/span&gt;&lt;span style=&quot;white-space: pre;&quot;&gt;&#x9;&lt;/span&gt;Gyártó&lt;/blockquote&gt;&lt;/blockquote&gt;&lt;/blockquote&gt;" style="rounded=0;whiteSpace=wrap;html=1;align=left;" vertex="1" parent="1">
          <mxGeometry x="-240" y="444" width="370" height="30" as="geometry" />
        </mxCell>
        <mxCell id="m1jzY_FzFD2qXY_B5aoY-63" value="adoszam" style="rounded=0;whiteSpace=wrap;html=1;" vertex="1" parent="1">
          <mxGeometry x="-240" y="474" width="60" height="60" as="geometry" />
        </mxCell>
        <mxCell id="m1jzY_FzFD2qXY_B5aoY-64" value="nev" style="rounded=0;whiteSpace=wrap;html=1;" vertex="1" parent="1">
          <mxGeometry x="-180" y="474" width="50" height="60" as="geometry" />
        </mxCell>
        <mxCell id="m1jzY_FzFD2qXY_B5aoY-65" value="irsz" style="rounded=0;whiteSpace=wrap;html=1;" vertex="1" parent="1">
          <mxGeometry x="-130" y="474" width="50" height="60" as="geometry" />
        </mxCell>
        <mxCell id="m1jzY_FzFD2qXY_B5aoY-66" value="varos" style="rounded=0;whiteSpace=wrap;html=1;" vertex="1" parent="1">
          <mxGeometry x="-80" y="474" width="70" height="60" as="geometry" />
        </mxCell>
        <mxCell id="m1jzY_FzFD2qXY_B5aoY-67" value="utca" style="rounded=0;whiteSpace=wrap;html=1;" vertex="1" parent="1">
          <mxGeometry x="-10" y="474" width="70" height="60" as="geometry" />
        </mxCell>
        <mxCell id="m1jzY_FzFD2qXY_B5aoY-68" value="" style="endArrow=none;html=1;rounded=0;" edge="1" parent="1">
          <mxGeometry width="50" height="50" relative="1" as="geometry">
            <mxPoint x="-222.5" y="514" as="sourcePoint" />
            <mxPoint x="-197.5" y="514" as="targetPoint" />
          </mxGeometry>
        </mxCell>
        <mxCell id="m1jzY_FzFD2qXY_B5aoY-69" value="telephely" style="rounded=0;whiteSpace=wrap;html=1;" vertex="1" parent="1">
          <mxGeometry x="60" y="474" width="70" height="60" as="geometry" />
        </mxCell>
        <mxCell id="m1jzY_FzFD2qXY_B5aoY-91" style="edgeStyle=orthogonalEdgeStyle;rounded=0;orthogonalLoop=1;jettySize=auto;html=1;exitX=0.5;exitY=1;exitDx=0;exitDy=0;entryX=0.5;entryY=1;entryDx=0;entryDy=0;" edge="1" parent="1" source="m1jzY_FzFD2qXY_B5aoY-70" target="m1jzY_FzFD2qXY_B5aoY-35">
          <mxGeometry relative="1" as="geometry" />
        </mxCell>
        <mxCell id="m1jzY_FzFD2qXY_B5aoY-70" value="tkod" style="rounded=0;whiteSpace=wrap;html=1;" vertex="1" parent="1">
          <mxGeometry x="-690" y="630" width="60" height="60" as="geometry" />
        </mxCell>
        <mxCell id="m1jzY_FzFD2qXY_B5aoY-73" value="egyseg_db" style="rounded=0;whiteSpace=wrap;html=1;" vertex="1" parent="1">
          <mxGeometry x="-630" y="630" width="90" height="60" as="geometry" />
        </mxCell>
        <mxCell id="m1jzY_FzFD2qXY_B5aoY-75" value="" style="endArrow=none;dashed=1;html=1;dashPattern=1 3;strokeWidth=2;rounded=0;" edge="1" parent="1">
          <mxGeometry width="50" height="50" relative="1" as="geometry">
            <mxPoint x="-672.5" y="670" as="sourcePoint" />
            <mxPoint x="-647.5" y="670" as="targetPoint" />
          </mxGeometry>
        </mxCell>
        <mxCell id="m1jzY_FzFD2qXY_B5aoY-76" value="&lt;span style=&quot;white-space: pre;&quot;&gt;&#x9;&lt;/span&gt;&lt;span style=&quot;white-space: pre;&quot;&gt;&#x9;&lt;/span&gt;Egységek" style="rounded=0;whiteSpace=wrap;html=1;align=left;" vertex="1" parent="1">
          <mxGeometry x="-690" y="600" width="150" height="30" as="geometry" />
        </mxCell>
        <mxCell id="m1jzY_FzFD2qXY_B5aoY-92" style="edgeStyle=orthogonalEdgeStyle;rounded=0;orthogonalLoop=1;jettySize=auto;html=1;exitX=0.5;exitY=1;exitDx=0;exitDy=0;entryX=0.75;entryY=1;entryDx=0;entryDy=0;" edge="1" parent="1" source="m1jzY_FzFD2qXY_B5aoY-77" target="m1jzY_FzFD2qXY_B5aoY-35">
          <mxGeometry relative="1" as="geometry" />
        </mxCell>
        <mxCell id="m1jzY_FzFD2qXY_B5aoY-77" value="tkod" style="rounded=0;whiteSpace=wrap;html=1;" vertex="1" parent="1">
          <mxGeometry x="-400" y="630" width="60" height="60" as="geometry" />
        </mxCell>
        <mxCell id="m1jzY_FzFD2qXY_B5aoY-94" style="edgeStyle=orthogonalEdgeStyle;rounded=0;orthogonalLoop=1;jettySize=auto;html=1;exitX=0.5;exitY=1;exitDx=0;exitDy=0;entryX=0.5;entryY=1;entryDx=0;entryDy=0;" edge="1" parent="1" source="m1jzY_FzFD2qXY_B5aoY-78" target="m1jzY_FzFD2qXY_B5aoY-83">
          <mxGeometry relative="1" as="geometry" />
        </mxCell>
        <mxCell id="m1jzY_FzFD2qXY_B5aoY-78" value="akod" style="rounded=0;whiteSpace=wrap;html=1;" vertex="1" parent="1">
          <mxGeometry x="-340" y="630" width="70" height="60" as="geometry" />
        </mxCell>
        <mxCell id="m1jzY_FzFD2qXY_B5aoY-79" value="" style="endArrow=none;dashed=1;html=1;dashPattern=1 3;strokeWidth=2;rounded=0;" edge="1" parent="1">
          <mxGeometry width="50" height="50" relative="1" as="geometry">
            <mxPoint x="-382.5" y="670" as="sourcePoint" />
            <mxPoint x="-357.5" y="670" as="targetPoint" />
          </mxGeometry>
        </mxCell>
        <mxCell id="m1jzY_FzFD2qXY_B5aoY-80" value="&lt;span style=&quot;white-space: pre;&quot;&gt;&#x9;&lt;/span&gt;&lt;span style=&quot;white-space: pre;&quot;&gt;&#x9;&lt;/span&gt;T - A" style="rounded=0;whiteSpace=wrap;html=1;align=left;" vertex="1" parent="1">
          <mxGeometry x="-400" y="600" width="130" height="30" as="geometry" />
        </mxCell>
        <mxCell id="m1jzY_FzFD2qXY_B5aoY-81" value="" style="endArrow=none;dashed=1;html=1;dashPattern=1 3;strokeWidth=2;rounded=0;" edge="1" parent="1">
          <mxGeometry width="50" height="50" relative="1" as="geometry">
            <mxPoint x="-307.5" y="670" as="sourcePoint" />
            <mxPoint x="-282.5" y="670" as="targetPoint" />
          </mxGeometry>
        </mxCell>
        <mxCell id="m1jzY_FzFD2qXY_B5aoY-83" value="akod" style="rounded=0;whiteSpace=wrap;html=1;" vertex="1" parent="1">
          <mxGeometry x="-190" y="630" width="60" height="60" as="geometry" />
        </mxCell>
        <mxCell id="m1jzY_FzFD2qXY_B5aoY-84" value="nev" style="rounded=0;whiteSpace=wrap;html=1;" vertex="1" parent="1">
          <mxGeometry x="-130" y="630" width="90" height="60" as="geometry" />
        </mxCell>
        <mxCell id="m1jzY_FzFD2qXY_B5aoY-86" value="&lt;span style=&quot;white-space: pre;&quot;&gt;&#x9;&lt;/span&gt;&lt;span style=&quot;white-space: pre;&quot;&gt;&#x9;&lt;/span&gt;Alkatrész" style="rounded=0;whiteSpace=wrap;html=1;align=left;" vertex="1" parent="1">
          <mxGeometry x="-190" y="600" width="150" height="30" as="geometry" />
        </mxCell>
        <mxCell id="m1jzY_FzFD2qXY_B5aoY-87" value="" style="endArrow=none;html=1;rounded=0;" edge="1" parent="1">
          <mxGeometry width="50" height="50" relative="1" as="geometry">
            <mxPoint x="-172.5" y="670" as="sourcePoint" />
            <mxPoint x="-147.5" y="670" as="targetPoint" />
          </mxGeometry>
        </mxCell>
        <mxCell id="m1jzY_FzFD2qXY_B5aoY-90" style="edgeStyle=orthogonalEdgeStyle;rounded=0;orthogonalLoop=1;jettySize=auto;html=1;exitX=0.5;exitY=1;exitDx=0;exitDy=0;entryX=0.25;entryY=1;entryDx=0;entryDy=0;" edge="1" parent="1" source="VRtCMUos0eJo_aIZs6vY-4" target="m1jzY_FzFD2qXY_B5aoY-35">
          <mxGeometry relative="1" as="geometry">
            <Array as="points">
              <mxPoint x="-565" y="554" />
              <mxPoint x="-535" y="554" />
            </Array>
          </mxGeometry>
        </mxCell>
      </root>
    </mxGraphModel>
  </diagram>
</mxfile>
